<svg xmlns="http://www.w3.org/2000/svg" viewBox="0 0 1200 675" width="1200" height="675" role="img" aria-label="Mindset"><defs><linearGradient id="gf6143c" x1="0" y1="0" x2="1" y2="1"><stop offset="0" stop-color="#F3EAFB"/><stop offset="1" stop-color="#E2D0F6"/></linearGradient><radialGradient id="gf6143ch" cx=".3" cy=".2" r=".9"><stop offset="0" stop-color="#FFFFFF" stop-opacity=".55"/><stop offset="1" stop-color="#FFFFFF" stop-opacity="0"/></radialGradient></defs><rect width="1200" height="675" fill="url(#gf6143c)"/><path d="M0 445 C 300 389 720 560 1200 400 L1200 675 L0 675 Z" fill="#7C3AED" opacity=".12"/><circle cx="1040" cy="140" r="150" fill="#54219F" opacity=".07"/><rect width="1200" height="675" fill="url(#gf6143ch)"/><circle cx="378" cy="255" r="10" fill="#54219F" opacity=".14"/><circle cx="570" cy="234" r="7" fill="#54219F" opacity=".15"/><circle cx="675" cy="579" r="9" fill="#54219F" opacity=".16"/><circle cx="294" cy="478" r="9" fill="#54219F" opacity=".14"/><circle cx="239" cy="105" r="5" fill="#54219F" opacity=".15"/><circle cx="278" cy="420" r="5" fill="#54219F" opacity=".16"/><circle cx="1005" cy="386" r="10" fill="#54219F" opacity=".14"/><circle cx="537" cy="281" r="150" fill="#FFFFFF" opacity=".34"/><g transform="translate(537,281) rotate(5) scale(15)"><g transform="translate(-12,-12)" fill="none" stroke="#54219F" stroke-opacity=".92" stroke-width="1.35" stroke-linecap="round" stroke-linejoin="round"><path d="M12 5.5A3.5 3.5 0 0 0 5.6 3.6 3 3 0 0 0 3.6 8.7 3.2 3.2 0 0 0 4.4 14 3 3 0 0 0 8 18.6a3 3 0 0 0 4 1.9zM12 5.5a3.5 3.5 0 0 1 6.4-1.9 3 3 0 0 1 2 5.1 3.2 3.2 0 0 1-.8 5.3A3 3 0 0 1 16 18.6a3 3 0 0 1-4 1.9zM12 5.5v15"/></g></g></svg>