<svg xmlns="http://www.w3.org/2000/svg" viewBox="0 0 1200 675" width="1200" height="675" role="img" aria-label="Weight loss"><defs><linearGradient id="g8cb857" x1="0" y1="0" x2="1" y2="1"><stop offset="0" stop-color="#E5F6EC"/><stop offset="1" stop-color="#C8EBD8"/></linearGradient><radialGradient id="g8cb857h" cx=".3" cy=".2" r=".9"><stop offset="0" stop-color="#FFFFFF" stop-opacity=".55"/><stop offset="1" stop-color="#FFFFFF" stop-opacity="0"/></radialGradient></defs><rect width="1200" height="675" fill="url(#g8cb857)"/><circle cx="110" cy="80" r="26" fill="#17B26A" opacity=".13"/><circle cx="262" cy="147" r="49" fill="#17B26A" opacity=".13"/><circle cx="414" cy="104" r="42" fill="#17B26A" opacity=".13"/><circle cx="566" cy="171" r="35" fill="#17B26A" opacity=".13"/><circle cx="718" cy="128" r="28" fill="#17B26A" opacity=".13"/><circle cx="870" cy="85" r="51" fill="#17B26A" opacity=".13"/><circle cx="1022" cy="152" r="44" fill="#17B26A" opacity=".13"/><circle cx="1174" cy="109" r="37" fill="#17B26A" opacity=".13"/><circle cx="200" cy="590" r="210" fill="#0D7A48" opacity=".06"/><rect width="1200" height="675" fill="url(#g8cb857h)"/><circle cx="1062" cy="140" r="7" fill="#0D7A48" opacity=".14"/><circle cx="418" cy="284" r="5" fill="#0D7A48" opacity=".15"/><circle cx="120" cy="571" r="4" fill="#0D7A48" opacity=".16"/><circle cx="324" cy="486" r="8" fill="#0D7A48" opacity=".14"/><circle cx="591" cy="531" r="7" fill="#0D7A48" opacity=".15"/><circle cx="346" cy="440" r="7" fill="#0D7A48" opacity=".16"/><circle cx="831" cy="94" r="10" fill="#0D7A48" opacity=".14"/><circle cx="523" cy="332" r="150" fill="#FFFFFF" opacity=".34"/><g transform="translate(523,332) rotate(0) scale(15)"><g transform="translate(-12,-12)" fill="none" stroke="#0D7A48" stroke-opacity=".92" stroke-width="1.35" stroke-linecap="round" stroke-linejoin="round"><path d="M4 8h16M12 8V5M6 8l-2.5 7a4 4 0 0 0 8 0L9 8M18 8l-2.5 7a4 4 0 0 0 8 0L21 8M9 21h6"/></g></g></svg>